<svg height="512pt" viewBox="-42 0 511 512" width="512pt" xmlns="http://www.w3.org/2000/svg"><g fill="#57565b"><path d="m8.851562 254.230469c0-29.304688 6.601563-57.144531 18.4375-82.199219l372.988282-.003906c11.835937 25.058594 18.4375 52.898437 18.4375 82.203125zm0 0"/><path d="m57.355469 253.996094-48.503907.234375c10.0625 65.777343 5.917969 107.582031.503907 131.355469-4.164063 18.28125 4.140625 37.230468 20.652343 46.121093 20.882813 11.242188 52.578126 22.902344 94.226563 22.902344l33.289063-7.960937 12.707031-35.515626zm0 0"/><path d="m370.214844 253.996094 48.5.234375c-10.0625 65.777343-5.914063 107.582031-.503906 131.355469 4.164062 18.28125-4.140626 37.230468-20.652344 46.121093-20.878906 11.242188-52.578125 22.902344-94.226563 22.902344l-33.289062-7.960937-12.707031-35.515626zm0 0"/></g><path d="m427.066406 253.996094c0 23.746094-19.25 43-43 43s-43-19.253906-43-43c0-23.75 19.25-43.003906 43-43.003906s43 19.253906 43 43.003906zm0 0" fill="#e2b195"/><path d="m172.320312 512h-62.355468c0-7.8125.636718-15.085938 1.800781-21.839844 1.152344-6.769531 2.816406-13.015625 4.867187-18.792968 8.777344-24.820313 24.535157-40.730469 36.699219-49.921876 9.558594-7.226562 16.894531-10.3125 16.894531-10.3125h62.046876l-3.898438 4.855469zm0 0" fill="#d8d7da"/><path d="m310.933594 471.371094c-8.777344-24.824219-24.535156-40.734375-36.699219-49.925782-9.558594-7.222656-16.898437-10.3125-16.898437-10.3125h-25.058594l-3.898438 4.859376-34.445312 20.183593c-13.390625 7.84375-21.613282 22.199219-21.613282 37.71875v38.105469h145.28125c.003907-15.621094-2.570312-29.085938-6.667968-40.628906zm0 0" fill="#eaeaea"/><path d="m236.082031 477.179688c0 4.925781-3.992187 8.921874-8.917969 8.921874-4.925781 0-8.921874-3.996093-8.921874-8.921874 0-4.925782 3.996093-8.917969 8.921874-8.917969 4.925782 0 8.917969 3.992187 8.917969 8.917969zm0 0" fill="#57565b"/><path d="m157.523438 477.179688c0 4.925781-3.992188 8.921874-8.917969 8.921874s-8.921875-3.996093-8.921875-8.921874c0-4.925782 3.996094-8.917969 8.921875-8.917969s8.917969 3.992187 8.917969 8.917969zm0 0" fill="#57565b"/><path d="m382.730469 254.230469c0-89.667969-75.640625-162.359375-168.945313-162.359375-93.308594 0-168.949218 72.691406-168.949218 162.359375 0 89.671875 75.640624 162.363281 168.949218 162.363281 93.304688 0 168.945313-72.691406 168.945313-162.363281zm0 0" fill="#fac5aa"/><path d="m75.742188 254.230469c0-84.660157 67.429687-154.175781 153.492187-161.675781-5.089844-.445313-10.238281-.683594-15.449219-.683594-77.996094 0-143.636718 50.796875-163.082031 119.839844-2.160156-.464844-4.542969-.714844-7.203125-.714844-23.746094 0-43 19.25-43 43 0 23.746094 19.253906 43 43 43 2.609375 0 4.949219-.246094 7.078125-.691406 19.285156 69.273437 85.042969 120.289062 163.207031 120.289062 5.210938 0 10.359375-.242188 15.449219-.683594-86.058594-7.503906-153.492187-77.019531-153.492187-161.679687zm0 0" fill="#e2b195"/><path d="m295.398438 272.410156c-4.269532 0-7.726563-3.460937-7.726563-7.726562v-15.871094c0-4.265625 3.457031-7.726562 7.726563-7.726562 4.269531 0 7.726562 3.460937 7.726562 7.726562v15.871094c0 4.265625-3.457031 7.726562-7.726562 7.726562zm0 0" fill="#57565b"/><path d="m306.207031 295.734375h-21.613281c-4.269531 0-7.726562-3.460937-7.726562-7.726563 0-4.265624 3.457031-7.726562 7.726562-7.726562h21.613281c4.269531 0 7.726563 3.460938 7.726563 7.726562 0 4.265626-3.460938 7.726563-7.726563 7.726563zm0 0" fill="#fd747f"/><path d="m132.167969 272.410156c-4.265625 0-7.726563-3.460937-7.726563-7.726562v-15.871094c0-4.265625 3.460938-7.726562 7.726563-7.726562s7.726562 3.460937 7.726562 7.726562v15.871094c0 4.265625-3.460937 7.726562-7.726562 7.726562zm0 0" fill="#57565b"/><path d="m142.972656 295.734375h-21.613281c-4.265625 0-7.726563-3.460937-7.726563-7.726563 0-4.265624 3.460938-7.726562 7.726563-7.726562h21.613281c4.269532 0 7.726563 3.460938 7.726563 7.726562 0 4.265626-3.457031 7.726563-7.726563 7.726563zm0 0" fill="#fd747f"/><path d="m213.785156 294.835938c-7.921875 0-15.363281-3.316407-20.417968-9.097657-2.808594-3.214843-2.480469-8.09375.734374-10.902343 3.210938-2.808594 8.09375-2.480469 10.902344.730468 2.121094 2.429688 5.320313 3.820313 8.78125 3.820313 3.457032 0 6.660156-1.390625 8.777344-3.816407 2.8125-3.214843 7.691406-3.542968 10.902344-.734374 3.214844 2.808593 3.542968 7.691406.734375 10.902343-5.054688 5.78125-12.496094 9.097657-20.414063 9.097657zm0 0" fill="#57565b"/><path d="m372.019531 0h-316.472656c-15.605469 0-28.257813 12.652344-28.257813 28.253906v92.890625l186.496094 25.441407 186.492188-25.441407v-92.890625c0-15.601562-12.652344-28.253906-28.257813-28.253906zm0 0" fill="#eaeaea"/><path d="m213.785156 39.144531c-10.421875 0-18.871094 8.449219-18.871094 18.867188v78.519531h37.738282v-78.519531c0-10.417969-8.449219-18.867188-18.867188-18.867188zm0 0" fill="#fff"/><path d="m105.371094 39.144531c-10.421875 0-18.871094 8.449219-18.871094 18.867188v78.519531h37.738281v-78.519531c-.003906-10.417969-8.449219-18.867188-18.867187-18.867188zm0 0" fill="#fff"/><path d="m322.199219 39.144531c10.417969 0 18.867187 8.449219 18.867187 18.867188v78.519531h-37.738281v-78.519531c.003906-10.417969 8.449219-18.867188 18.871094-18.867188zm0 0" fill="#fff"/><path d="m27.289062 121.144531h372.988282v50.882813h-372.988282zm0 0" fill="#d8d7da"/></svg>